<?xml version="1.0" encoding="utf-8"?>
<svg width="483.334" height="458.333" viewBox="0 0 483.334 458.333" fill="none" xmlns="http://www.w3.org/2000/svg">
  <g id="Dibujo">
    <g id="Group">
      <path id="Path" d="M391.667 100C387.433 100 382.4 100.658 377.592 101.533C360.15 41.7667 305.525 0 241.667 0C177.8 0 123.175 41.7667 105.733 101.533C100.933 100.658 95.8917 100 91.6667 100C41.125 100 0 141.125 0 191.667C0 242.208 41.125 283.333 91.6667 283.333C100.867 283.333 108.333 275.867 108.333 266.667C108.333 257.467 100.867 250 91.6667 250C59.5083 250 33.3333 223.825 33.3333 191.667C33.3333 159.508 59.5083 133.333 91.6667 133.333C93.975 133.333 97.7 133.9 101.617 134.683C101.617 134.683 101.617 150 101.617 150C101.617 159.2 109.083 166.667 118.283 166.667C127.483 166.667 134.95 159.2 134.95 150C134.95 150 134.95 123.133 134.95 123.133C143.908 71.0417 188.592 33.3333 241.667 33.3333C294.767 33.3333 339.467 71.0833 348.4 123.225C348.4 123.225 348.4 150 348.4 150C348.4 159.2 355.867 166.667 365.067 166.667C374.267 166.667 381.733 159.2 381.733 150C381.733 150 381.733 134.683 381.733 134.683C385.642 133.9 389.358 133.333 391.667 133.333C423.825 133.333 450 159.508 450 191.667C450 223.825 423.825 250 391.667 250C382.458 250 375 257.467 375 266.667C375 275.867 382.458 283.333 391.667 283.333C442.208 283.333 483.333 242.208 483.333 191.667C483.333 141.125 442.208 100 391.667 100C391.667 100 391.667 100 391.667 100Z" fill="#B3B3B3" fill-rule="evenodd" />
      <path id="Path" d="M55 6.28751C48.7166 -2.09583 34.625 -2.09583 28.3416 6.28751C21.6833 15.1458 0 45.6625 0 66.2875C0 90.8209 17.1333 107.954 41.6667 107.954C66.2 107.954 83.3333 90.8209 83.3333 66.2875C83.3333 45.6625 61.6417 15.1458 55 6.28751C55 6.28751 55 6.28751 55 6.28751Z" fill="#B3B3B3" fill-rule="evenodd" transform="translate(116.666 250.379)" />
      <path id="Path" d="M28.3333 6.28751C21.6833 15.1458 0 45.6625 0 66.2875C0 90.8209 17.1333 107.954 41.6667 107.954C66.2 107.954 83.3333 90.8209 83.3333 66.2875C83.3333 45.6625 61.6417 15.1458 55 6.28751C48.7167 -2.09583 34.6166 -2.09583 28.3333 6.28751C28.3333 6.28751 28.3333 6.28751 28.3333 6.28751Z" fill="#B3B3B3" fill-rule="evenodd" transform="translate(283.334 250.379)" />
      <path id="Path" d="M28.3333 6.28751C21.6833 15.1458 0 45.6625 0 66.2875C0 90.8208 17.1333 107.954 41.6667 107.954C66.2 107.954 83.3333 90.8208 83.3333 66.2875C83.3333 45.6625 61.6417 15.1458 55 6.28751C48.7167 -2.09586 34.6167 -2.09586 28.3333 6.28751C28.3333 6.28751 28.3333 6.28751 28.3333 6.28751Z" fill="#B3B3B3" fill-rule="evenodd" transform="translate(200 350.379)" />
    </g>
  </g>
</svg>