<?xml version="1.0" encoding="utf-8"?>
<svg width="533.333" height="283.333" viewBox="0 0 533.333 283.333" fill="none" xmlns="http://www.w3.org/2000/svg">
  <g id="Dibujo">
    <g id="Group">
      <path id="Path" d="M16.6667 33.3333C16.6667 33.3333 116.667 33.3333 116.667 33.3333C125.867 33.3333 133.333 25.8667 133.333 16.6667C133.333 7.46667 125.867 0 116.667 0C116.667 0 16.6667 0 16.6667 0C7.45834 0 0 7.46667 0 16.6667C0 25.8667 7.45834 33.3333 16.6667 33.3333C16.6667 33.3333 16.6667 33.3333 16.6667 33.3333Z" fill="#B3B3B3" fill-rule="evenodd" transform="translate(175 0)" />
      <path id="Path" d="M16.6667 33.3333C16.6667 33.3333 216.667 33.3333 216.667 33.3333C225.867 33.3333 233.333 25.8667 233.333 16.6667C233.333 7.46666 225.867 0 216.667 0C216.667 0 16.6667 0 16.6667 0C7.45834 0 0 7.46666 0 16.6667C0 25.8667 7.45834 33.3333 16.6667 33.3333C16.6667 33.3333 16.6667 33.3333 16.6667 33.3333Z" fill="#B3B3B3" fill-rule="evenodd" transform="translate(75 50)" />
      <path id="Path" d="M16.6667 33.3333C16.6667 33.3333 216.675 33.3333 216.675 33.3333C225.875 33.3333 233.342 25.8667 233.342 16.6667C233.342 7.46667 225.875 0 216.675 0C216.675 0 16.6667 0 16.6667 0C7.45834 0 0 7.46667 0 16.6667C0 25.8667 7.45832 33.3333 16.6667 33.3333C16.6667 33.3333 16.6667 33.3333 16.6667 33.3333Z" fill="#B3B3B3" fill-rule="evenodd" transform="translate(24.992 100)" />
      <path id="Path" d="M533.333 16.6667C533.333 7.46666 525.867 0 516.667 0C516.667 0 16.6667 0 16.6667 0C7.45834 0 0 7.46666 0 16.6667C0 25.8667 7.45834 33.3333 16.6667 33.3333C16.6667 33.3333 516.667 33.3333 516.667 33.3333C525.867 33.3333 533.333 25.8667 533.333 16.6667C533.333 16.6667 533.333 16.6667 533.333 16.6667Z" fill="#B3B3B3" fill-rule="evenodd" transform="translate(0 150)" />
      <path id="Path" d="M491.667 0C491.667 0 16.6667 0 16.6667 0C7.45834 0 0 7.46666 0 16.6667C0 25.8667 7.45834 33.3333 16.6667 33.3333C16.6667 33.3333 491.667 33.3333 491.667 33.3333C500.867 33.3333 508.333 25.8667 508.333 16.6667C508.333 7.46666 500.867 0 491.667 0C491.667 0 491.667 0 491.667 0Z" fill="#B3B3B3" fill-rule="evenodd" transform="translate(25 200)" />
      <path id="Path" d="M116.667 0.0083313C116.667 0.0083313 16.6667 0 16.6667 0C7.45834 0 0 7.46671 0 16.6667C0 25.8666 7.45834 33.3333 16.6667 33.3333C16.6667 33.3333 116.667 33.3416 116.667 33.3416C125.867 33.3416 133.333 25.8749 133.333 16.675C133.333 7.47504 125.867 0.0083313 116.667 0.0083313C116.667 0.0083313 116.667 0.0083313 116.667 0.0083313Z" fill="#B3B3B3" fill-rule="evenodd" transform="translate(75 249.992)" />
      <path id="Path" d="M16.6667 33.3333C16.6667 33.3333 83.3333 33.3333 83.3333 33.3333C92.5333 33.3333 100 25.8667 100 16.6667C100 7.46666 92.5333 0 83.3333 0C83.3333 0 16.6667 0 16.6667 0C7.45834 0 0 7.46666 0 16.6667C0 25.8667 7.45834 33.3333 16.6667 33.3333C16.6667 33.3333 16.6667 33.3333 16.6667 33.3333Z" fill="#B3B3B3" fill-rule="evenodd" transform="translate(333.334 50)" />
      <path id="Path" d="M0 16.6667C0 25.8667 7.45834 33.3333 16.6667 33.3333C16.6667 33.3333 191.667 33.3333 191.667 33.3333C200.867 33.3333 208.333 25.8667 208.333 16.6667C208.333 7.46667 200.867 0 191.667 0C191.667 0 16.6667 0 16.6667 0C7.45834 0 0 7.46667 0 16.6667C0 16.6667 0 16.6667 0 16.6667Z" fill="#B3B3B3" fill-rule="evenodd" transform="translate(275 100)" />
      <path id="Path" d="M241.667 0C241.667 0 16.6667 0.0083313 16.6667 0.0083313C7.45834 0.0083313 0 7.47504 0 16.675C0 25.8749 7.45834 33.3416 16.6667 33.3416C16.6667 33.3416 241.667 33.3333 241.667 33.3333C250.867 33.3333 258.333 25.8666 258.333 16.6667C258.333 7.46671 250.867 0 241.667 0C241.667 0 241.667 0 241.667 0Z" fill="#B3B3B3" fill-rule="evenodd" transform="translate(225 249.992)" />
    </g>
  </g>
</svg>