<?xml version="1.0" encoding="utf-8"?>
<svg width="433.333" height="433.333" viewBox="0 0 433.333 433.333" fill="none" xmlns="http://www.w3.org/2000/svg">
  <path id="Shape" d="M334.517 115.483C338.783 115.483 343.05 113.858 346.3 110.6C346.3 110.6 369.875 87.0251 369.875 87.0251C376.383 80.5167 376.383 69.9667 369.875 63.4584C363.367 56.9501 352.808 56.9501 346.308 63.4584C346.308 63.4584 322.733 87.0334 322.733 87.0334C316.225 93.5417 316.225 104.092 322.733 110.6C325.983 113.858 330.25 115.483 334.517 115.483C334.517 115.483 334.517 115.483 334.517 115.483ZM66.6667 216.667C66.6667 207.467 59.2 200 50 200C50 200 16.6667 200 16.6667 200C7.46667 200 0 207.467 0 216.667C0 225.867 7.46667 233.333 16.6667 233.333C16.6667 233.333 50 233.333 50 233.333C59.2 233.333 66.6667 225.867 66.6667 216.667C66.6667 216.667 66.6667 216.667 66.6667 216.667ZM87.0334 322.733C87.0334 322.733 63.4584 346.308 63.4584 346.308C56.9501 352.817 56.9501 363.367 63.4584 369.875C66.7084 373.133 70.9751 374.758 75.2417 374.758C79.5084 374.758 83.7751 373.133 87.0251 369.875C87.0251 369.875 110.6 346.3 110.6 346.3C117.108 339.792 117.108 329.242 110.6 322.733C104.1 316.225 93.5334 316.225 87.0334 322.733C87.0334 322.733 87.0334 322.733 87.0334 322.733ZM87.0334 110.6C90.2834 113.858 94.55 115.483 98.8167 115.483C103.083 115.483 107.35 113.858 110.6 110.6C117.108 104.092 117.108 93.5417 110.6 87.0334C110.6 87.0334 87.0251 63.4584 87.0251 63.4584C80.5251 56.9501 69.9584 56.9501 63.4584 63.4584C56.9501 69.9667 56.9501 80.5167 63.4584 87.0251C63.4584 87.0251 87.0334 110.6 87.0334 110.6C87.0334 110.6 87.0334 110.6 87.0334 110.6ZM216.667 66.6667C225.867 66.6667 233.333 59.2 233.333 50C233.333 50 233.333 16.6667 233.333 16.6667C233.333 7.46666 225.867 0 216.667 0C207.467 0 200 7.46666 200 16.6667C200 16.6667 200 50 200 50C200 59.2 207.467 66.6667 216.667 66.6667C216.667 66.6667 216.667 66.6667 216.667 66.6667ZM416.667 200C416.667 200 383.333 200 383.333 200C374.133 200 366.667 207.467 366.667 216.667C366.667 225.867 374.133 233.333 383.333 233.333C383.333 233.333 416.667 233.333 416.667 233.333C425.866 233.333 433.333 225.867 433.333 216.667C433.333 207.467 425.866 200 416.667 200C416.667 200 416.667 200 416.667 200ZM346.3 322.733C339.8 316.225 329.233 316.225 322.733 322.733C316.225 329.242 316.225 339.792 322.733 346.3C322.733 346.3 346.308 369.875 346.308 369.875C349.558 373.133 353.825 374.758 358.092 374.758C362.358 374.758 366.617 373.133 369.875 369.875C376.383 363.367 376.383 352.817 369.875 346.308C369.875 346.308 346.3 322.733 346.3 322.733C346.3 322.733 346.3 322.733 346.3 322.733ZM216.667 366.667C207.467 366.667 200 374.133 200 383.333C200 383.333 200 416.667 200 416.667C200 425.867 207.467 433.333 216.667 433.333C225.867 433.333 233.333 425.867 233.333 416.667C233.333 416.667 233.333 383.333 233.333 383.333C233.333 374.133 225.867 366.667 216.667 366.667C216.667 366.667 216.667 366.667 216.667 366.667ZM216.667 100C152.333 100 100 152.333 100 216.667C100 281 152.333 333.333 216.667 333.333C281 333.333 333.333 281 333.333 216.667C333.333 152.333 281 100 216.667 100C216.667 100 216.667 100 216.667 100ZM216.667 300C170.717 300 133.333 262.617 133.333 216.667C133.333 170.717 170.717 133.333 216.667 133.333C262.617 133.333 300 170.717 300 216.667C300 262.617 262.617 300 216.667 300C216.667 300 216.667 300 216.667 300Z" fill="#B3B3B3" />
</svg>