<?xml version="1.0" encoding="utf-8"?>
<svg width="701.421" height="800" viewBox="0 0 701.421 800" fill="none" xmlns="http://www.w3.org/2000/svg">
  <path id="Shape" d="M701.277 765.958C701.277 765.958 701.277 245.106 701.277 245.106C701.277 110.639 590.638 0 454.468 0C329.86 0 226.651 91.2281 210.019 211.064C210.019 211.064 131.065 211.064 131.065 211.064C115.746 211.064 103.83 221.277 98.7241 234.894C98.7241 234.894 1.70215 546.383 1.70215 546.383C-1.70239 556.595 0.000732422 566.808 6.80835 575.319C13.6162 583.83 23.8303 588.936 34.0427 588.936C34.0427 588.936 104.924 588.936 104.924 588.936C118.504 658.592 180.105 711.489 253.618 711.489C327.13 711.489 388.732 658.592 404.643 588.936C404.643 588.936 473.193 588.936 473.193 588.936C491.916 588.936 505.533 575.319 505.533 554.894C505.533 549.788 503.832 546.383 502.129 541.277C502.129 541.277 406.81 234.894 406.81 234.894C401.704 221.277 389.788 211.064 374.469 211.064C374.469 211.064 279.063 211.064 279.063 211.064C295.268 128.631 369.091 66.3828 456.172 66.3828C556.598 66.3828 636.598 146.383 636.598 245.106C636.598 245.106 636.598 765.958 636.598 765.958C636.598 784.681 651.916 800 670.64 800C689.361 800 702.979 784.681 701.277 765.958C701.277 765.958 701.277 765.958 701.277 765.958ZM255.319 643.405C218.204 643.405 187.288 620.691 175.424 588.936C175.424 588.936 335.216 588.936 335.216 588.936C323.349 620.691 292.435 643.405 255.319 643.405C255.319 643.405 255.319 643.405 255.319 643.405ZM427.234 522.553L80.001 522.553L156.596 279.148L350.639 279.148L427.234 522.553L427.234 522.553Z" fill="#B3B3B3" />
</svg>