<?xml version="1.0" encoding="utf-8"?>
<svg width="400" height="533.333" viewBox="0 0 400 533.333" fill="none" xmlns="http://www.w3.org/2000/svg">
  <path id="Shape" d="M400 200C400 267.847 366.217 327.803 314.553 363.963C326.293 378.323 333.333 396.673 333.333 416.667C333.333 456.997 304.684 490.637 266.626 498.34C266.653 498.89 266.667 499.443 266.667 500C266.667 518.41 251.743 533.333 233.333 533.333C233.333 533.333 166.667 533.333 166.667 533.333C148.257 533.333 133.333 518.41 133.333 500C133.333 499.443 133.347 498.89 133.374 498.34C95.3164 490.637 66.6665 456.997 66.6665 416.667C66.6665 396.673 73.7075 378.323 85.4458 363.963C33.7832 327.803 0 267.847 0 200C0 89.543 89.543 0 200 0C310.457 0 400 89.543 400 200C400 200 400 200 400 200ZM333.333 200C333.333 273.637 273.636 333.333 200 333.333C126.361 333.333 66.666 273.637 66.666 200C66.666 126.362 126.361 66.6667 200 66.6667C273.636 66.6667 333.333 126.362 333.333 200C333.333 200 333.333 200 333.333 200ZM197.154 400L200 400L202.847 400C202.847 400 250 400 250 400C259.204 400 266.667 407.463 266.667 416.667C266.667 425.87 259.204 433.333 250 433.333C250 433.333 202.847 433.333 202.847 433.333L197.154 433.333C197.154 433.333 150 433.333 150 433.333C140.797 433.333 133.334 425.87 133.334 416.667C133.334 407.463 140.797 400 150 400C150 400 197.154 400 197.154 400L197.154 400Z" fill="#B3B3B3" fill-rule="evenodd" />
</svg>