<?xml version="1.0" encoding="utf-8"?>
<svg width="647.14" height="566.667" viewBox="0 0 647.14 566.667" fill="none" xmlns="http://www.w3.org/2000/svg">
  <path id="Shape" d="M43.0991 9.763C30.0815 22.7807 30.0815 43.886 43.0991 56.9037C43.0991 56.9037 76.4321 90.237 76.4321 90.237C89.4497 103.254 110.555 103.254 123.573 90.237C136.59 77.2193 136.59 56.114 123.573 43.0963C123.573 43.0963 90.2397 9.763 90.2397 9.763C77.2222 -3.25433 56.1167 -3.25433 43.0991 9.763C43.0991 9.763 43.0991 9.763 43.0991 9.763ZM576.434 9.763C589.45 -3.25433 610.557 -3.25433 623.574 9.763C636.59 22.7807 636.59 43.886 623.574 56.9037C623.574 56.9037 590.24 90.237 590.24 90.237C577.224 103.254 556.117 103.254 543.101 90.237C530.083 77.2193 530.083 56.114 543.101 43.0963C543.101 43.0963 576.434 9.763 576.434 9.763C576.434 9.763 576.434 9.763 576.434 9.763ZM590.24 376.43C590.24 376.43 623.574 409.763 623.574 409.763C636.59 422.78 636.59 443.887 623.574 456.903C610.557 469.92 589.45 469.92 576.434 456.903C576.434 456.903 543.101 423.57 543.101 423.57C530.083 410.553 530.083 389.447 543.101 376.43C556.117 363.413 577.224 363.413 590.24 376.43C590.24 376.43 590.24 376.43 590.24 376.43ZM43.0991 456.903C30.0815 443.887 30.0815 422.78 43.0991 409.763C43.0991 409.763 76.4321 376.43 76.4321 376.43C89.4497 363.413 110.555 363.413 123.573 376.43C136.59 389.447 136.59 410.553 123.573 423.57C123.573 423.57 90.2397 456.903 90.2397 456.903C77.2222 469.92 56.1167 469.92 43.0991 456.903C43.0991 456.903 43.0991 456.903 43.0991 456.903ZM613.806 266.667C632.216 266.67 647.139 251.747 647.139 233.337C647.143 214.927 632.219 200.002 613.81 200.001C613.81 200.001 600.003 200 600.003 200C581.593 199.999 566.669 214.922 566.666 233.331C566.666 251.74 581.589 266.667 600 266.667C600 266.667 613.806 266.667 613.806 266.667C613.806 266.667 613.806 266.667 613.806 266.667ZM0 240.24C0.00146484 258.65 14.9263 273.573 33.3354 273.57C33.3354 273.57 47.1426 273.57 47.1426 273.57C65.5522 273.57 80.4751 258.643 80.4736 240.233C80.4722 221.825 65.5479 206.902 47.1382 206.903C47.1382 206.903 33.3311 206.904 33.3311 206.904C14.9219 206.905 -0.00146484 221.83 0 240.24C0 240.24 0 240.24 0 240.24ZM447.887 397.297C499.551 361.137 533.334 301.18 533.334 233.333C533.334 122.876 443.791 33.3333 333.334 33.3333C222.877 33.3333 133.334 122.876 133.334 233.333C133.334 301.18 167.117 361.137 218.78 397.297C207.042 411.657 200 430.007 200 450C200 490.33 228.65 523.97 266.708 531.673C266.681 532.223 266.667 532.777 266.667 533.333C266.667 551.743 281.591 566.667 300 566.667C300 566.667 366.667 566.667 366.667 566.667C385.077 566.667 400 551.743 400 533.333C400 532.777 399.987 532.223 399.96 531.673C438.018 523.97 466.667 490.33 466.667 450C466.667 430.007 459.627 411.657 447.887 397.297C447.887 397.297 447.887 397.297 447.887 397.297ZM333.333 366.667C406.97 366.667 466.667 306.97 466.667 233.333C466.667 159.695 406.97 100 333.333 100C259.695 100 200 159.695 200 233.333C200 306.97 259.695 366.667 333.333 366.667C333.333 366.667 333.333 366.667 333.333 366.667ZM333.333 433.333L330.486 433.333C330.486 433.333 283.333 433.333 283.333 433.333C274.129 433.333 266.666 440.797 266.666 450C266.666 459.203 274.129 466.667 283.333 466.667C283.333 466.667 330.486 466.667 330.486 466.667L336.179 466.667C336.179 466.667 383.333 466.667 383.333 466.667C392.536 466.667 400 459.203 400 450C400 440.797 392.536 433.333 383.333 433.333C383.333 433.333 336.179 433.333 336.179 433.333L333.333 433.333L333.333 433.333Z" fill="#B3B3B3" fill-rule="evenodd" />
</svg>