<?xml version="1.0" encoding="utf-8"?>
<svg width="620.477" height="800.065" viewBox="0 0 620.477 800.065" fill="none" xmlns="http://www.w3.org/2000/svg">
  <path id="Shape" d="M5.94824 475.521C5.94824 475.521 613.826 475.521 613.826 475.521C623.396 462.761 621.964 449.675 613.826 436.458C613.826 436.458 388.305 149.089 388.305 149.089L241.104 149.089C241.104 149.089 5.94824 436.393 5.94824 436.393C-0.627441 449.74 -3.23145 462.891 5.94824 475.521C5.94824 475.521 5.94824 475.521 5.94824 475.521L5.94824 475.521ZM295.466 633.464C295.466 625.326 302.107 618.685 310.245 618.685C318.383 618.685 325.023 625.326 325.023 633.464C325.023 633.464 325.023 785.286 325.023 785.286C325.023 793.425 318.383 800.065 310.245 800.065C302.107 800.065 295.466 793.425 295.466 785.286C295.466 785.286 295.466 633.464 295.466 633.464L295.466 633.464C295.466 633.464 295.466 633.464 295.466 633.464ZM427.498 610.872C421.573 605.339 421.183 596.094 426.716 590.104C432.25 584.18 441.495 583.789 447.484 589.323C447.484 589.323 564.542 697.591 564.542 697.591C570.466 703.125 570.857 712.37 565.323 718.359C559.789 724.284 550.479 724.674 544.555 719.141C544.555 719.141 427.498 610.872 427.498 610.872L427.498 610.872C427.498 610.872 427.498 610.872 427.498 610.872ZM176.781 588.997C182.901 583.659 192.211 584.245 197.55 590.365C202.888 596.484 202.302 605.794 196.183 611.133C196.183 611.133 79.125 713.542 79.125 713.542C73.0054 718.88 63.6953 718.294 58.3569 712.174C53.0186 706.055 53.6045 696.745 59.7241 691.406C59.7241 691.406 176.781 588.997 176.781 588.997L176.781 588.997C176.781 588.997 176.781 588.997 176.781 588.997ZM293.579 0L326.977 0C326.977 0 326.977 57.9427 326.977 57.9427C358.748 65.5599 382.511 94.2708 382.511 128.255C382.511 128.255 382.511 132.943 382.511 132.943L237.979 132.943C237.979 132.943 237.979 128.255 237.979 128.255C237.979 94.2709 261.808 65.5599 293.579 57.9427C293.579 57.9427 293.579 0 293.579 0L293.579 0L293.579 0ZM311.352 576.693C311.352 576.693 311.352 576.693 311.352 576.693C350.349 576.693 382.315 544.792 382.315 505.729C382.315 505.729 382.315 501.172 382.315 501.172L240.388 501.172C240.388 501.172 240.388 505.729 240.388 505.729C240.388 544.792 272.289 576.693 311.352 576.693C311.352 576.693 311.352 576.693 311.352 576.693L311.352 576.693Z" fill="#B3B3B3" fill-rule="evenodd" />
</svg>